name rise49.5252peak65.1548fall88.8305.mot
datacolumns 19
datarows 11
range 15.52327200000000 15.53993600000000
endheader
time	ground_force1_vx	ground_force1_vy	ground_force1_vz	ground_force1_px	ground_force1_py	ground_force1_pz	ground_force2_vx	ground_force2_vy	ground_force2_vz	ground_force2_px	ground_force2_py	ground_force2_pz	ground_torque1_x	ground_torque1_y	ground_torque1_z	ground_torque2_x	ground_torque2_y	ground_torque2_z	
15.52327200000000	-9.36456100000000	41.36062100000000	-15.53075200000000	0.39987500000000	0.00000000000000	0.06841500000000	-56.41687900000000	796.95983300000000	-46.45745200000000	0.19384200000000	0.00000000000000	-0.07617800000000	0.00000000000000	-13.34556600000000	0.00000000000000	0.00000000000000	-23.99684600000000	0.00000000000000	
15.52493600000000	-10.21127200000000	48.27093400000000	-17.49312700000000	0.40204400000000	0.00000000000000	0.06989000000000	-57.33337000000000	794.33930799999996	-46.15605200000000	0.19263100000000	0.00000000000000	-0.07611600000000	0.00000000000000	-15.09429700000000	0.00000000000000	0.00000000000000	-23.94060200000000	0.00000000000000	
15.52659900000000	-10.86634600000000	55.22013200000000	-19.28839600000000	0.40418700000000	0.00000000000000	0.07126200000000	-58.26248900000000	791.59427700000003	-45.84015800000000	0.19141200000000	0.00000000000000	-0.07605200000000	0.00000000000000	-16.71761400000000	0.00000000000000	0.00000000000000	-23.88441100000000	0.00000000000000	
15.52827000000000	-11.30478200000000	62.11713700000000	-20.87625800000000	0.40630500000000	0.00000000000000	0.07254300000000	-59.20311200000000	788.72195699999997	-45.50930700000000	0.19018600000000	0.00000000000000	-0.07598600000000	0.00000000000000	-18.18088700000000	0.00000000000000	0.00000000000000	-23.82804100000000	0.00000000000000	
15.52993500000000	-11.51248500000000	68.89534100000000	-22.23009700000000	0.40839900000000	0.00000000000000	0.07374400000000	-60.15401500000000	785.71952699999997	-45.16304900000000	0.18895500000000	0.00000000000000	-0.07591800000000	0.00000000000000	-19.46071900000000	0.00000000000000	0.00000000000000	-23.77124900000000	0.00000000000000	
15.53160400000000	-11.48602300000000	75.51448100000000	-23.33716300000000	0.41047000000000	0.00000000000000	0.07487500000000	-61.11387900000000	782.58413399999995	-44.80095000000000	0.18772000000000	0.00000000000000	-0.07584700000000	0.00000000000000	-20.54522500000000	0.00000000000000	0.00000000000000	-23.71377800000000	0.00000000000000	
15.53327400000000	-11.23156000000000	81.96002700000000	-24.19759800000000	0.41251800000000	0.00000000000000	0.07594400000000	-62.08128800000000	779.31290500000000	-44.42259400000000	0.18648100000000	0.00000000000000	-0.07577300000000	0.00000000000000	-21.43332200000000	0.00000000000000	0.00000000000000	-23.65535700000000	0.00000000000000	
15.53493300000000	-10.76317700000000	88.24055300000001	-24.82256900000000	0.41454400000000	0.00000000000000	0.07695600000000	-63.05473000000000	775.90295400000002	-44.02758900000000	0.18523900000000	0.00000000000000	-0.07569700000000	0.00000000000000	-22.13325300000000	0.00000000000000	0.00000000000000	-23.59570500000000	0.00000000000000	
15.53660700000000	-10.10083200000000	94.38364799999999	-25.23181200000000	0.41654800000000	0.00000000000000	0.07791900000000	-64.03260200000000	772.35138800000004	-43.61556800000000	0.18399500000000	0.00000000000000	-0.07561900000000	0.00000000000000	-22.66060600000000	0.00000000000000	0.00000000000000	-23.53453200000000	0.00000000000000	
15.53826800000000	-9.26820000000000	100.43097000000000	-25.45090600000000	0.41852900000000	0.00000000000000	0.07883500000000	-65.01321000000000	768.65532199999996	-43.18619300000000	0.18275100000000	0.00000000000000	-0.07553700000000	0.00000000000000	-23.03605600000000	0.00000000000000	0.00000000000000	-23.47153700000000	0.00000000000000	
15.53993600000000	-8.29056200000000	106.43298299999999	-25.50854100000000	0.42048700000000	0.00000000000000	0.07971000000000	-65.99477100000000	764.81188399999996	-42.73916000000000	0.18150700000000	0.00000000000000	-0.07545300000000	0.00000000000000	-23.28308700000000	0.00000000000000	0.00000000000000	-23.40640900000000	0.00000000000000	
